<svg xmlns="http://www.w3.org/2000/svg" xmlns:xlink="http://www.w3.org/1999/xlink" width="500" zoomAndPan="magnify" viewBox="0 0 375 374.999991" height="500" preserveAspectRatio="xMidYMid meet" version="1.0"><defs><g/><clipPath id="4688ceaeea"><path d="M 158 165 L 259.5 165 L 259.5 227 L 158 227 Z M 158 165 " clip-rule="nonzero"/></clipPath><clipPath id="bbc6744bbb"><path d="M 115.5 83.761719 L 249 83.761719 L 249 233.761719 L 115.5 233.761719 Z M 115.5 83.761719 " clip-rule="nonzero"/></clipPath></defs><rect x="-37.5" width="450" fill="#ffffff" y="-37.499999" height="449.999989" fill-opacity="1"/><rect x="-37.5" width="450" fill="#ffffff" y="-37.499999" height="449.999989" fill-opacity="1"/><g clip-path="url(#4688ceaeea)"><path fill="#a6a6a6" d="M 232.078125 201.554688 C 236.582031 193.679688 239.152344 184.5625 239.152344 174.84375 C 239.152344 171.632812 238.871094 168.484375 238.332031 165.429688 C 236.152344 177.554688 229.707031 188.199219 220.601562 195.746094 C 215.332031 200.117188 207.492188 199.230469 203.367188 193.765625 L 195.675781 183.570312 C 194.394531 181.875 192.394531 180.878906 190.269531 180.878906 L 160.953125 180.878906 C 160.945312 180.878906 160.9375 180.878906 160.933594 180.878906 C 158.929688 180.894531 157.636719 183.003906 158.535156 184.796875 L 159.703125 187.121094 C 161.871094 191.441406 166.140625 194.3125 170.960938 194.691406 L 172.699219 194.828125 L 180.300781 195.429688 C 182.453125 195.597656 184.394531 196.789062 185.519531 198.628906 L 188.96875 204.269531 L 190.898438 207.425781 L 201.714844 225.117188 C 201.90625 225.433594 202.148438 225.707031 202.421875 225.9375 C 203.214844 226.601562 204.289062 226.878906 205.328125 226.621094 C 205.335938 226.617188 205.34375 226.617188 205.351562 226.613281 C 233.40625 219.691406 255.015625 196.421875 259.503906 167.488281 C 255.566406 182.332031 245.449219 194.660156 232.078125 201.554688 " fill-opacity="1" fill-rule="nonzero"/></g><g clip-path="url(#bbc6744bbb)"><path fill="#000000" d="M 183.449219 199.894531 C 182.730469 198.71875 181.484375 197.953125 180.109375 197.84375 L 170.769531 197.109375 C 165.140625 196.667969 160.070312 193.257812 157.535156 188.207031 L 156.429688 186.007812 C 155.644531 184.441406 155.625 182.570312 156.492188 181.050781 C 157.386719 179.480469 159 178.511719 160.789062 178.457031 L 160.953125 178.453125 L 170.339844 178.453125 C 167.277344 173.625 161.761719 170.90625 156.054688 171.441406 L 146.300781 172.351562 C 142.125 172.742188 138.371094 169.863281 137.601562 165.738281 C 137.03125 162.679688 136.730469 159.527344 136.730469 156.304688 C 136.730469 139.960938 144.386719 125.410156 156.300781 116.03125 C 144.496094 123.808594 135.308594 135.234375 130.351562 148.703125 C 134.816406 116.25 162.65625 91.253906 196.335938 91.253906 C 217.1875 91.253906 235.796875 100.832031 248.011719 115.828125 C 235.027344 96.605469 213.0625 83.945312 188.136719 83.878906 C 148.234375 83.777344 115.578125 116.289062 115.519531 156.195312 C 115.5 170.242188 119.480469 183.355469 126.382812 194.464844 C 126.53125 194.699219 126.671875 194.933594 126.820312 195.167969 L 136.488281 193.527344 C 140.808594 192.796875 144.363281 196.972656 142.894531 201.097656 C 142.851562 201.210938 142.828125 201.273438 142.828125 201.273438 C 149.050781 203.539062 148 209.601562 148 209.601562 C 153.496094 212.105469 151.234375 217.28125 151.234375 217.28125 C 153.175781 218.082031 153.859375 219.65625 154.035156 220.167969 C 154.125 220.429688 154.222656 220.6875 154.324219 220.949219 L 158.082031 230.59375 C 158.730469 232.253906 160.714844 233.609375 162.496094 233.609375 C 164.742188 233.609375 166.296875 231.363281 165.503906 229.261719 L 163.746094 224.578125 L 161.398438 218.332031 C 161.234375 217.898438 161.535156 217.417969 162.007812 217.382812 C 162.320312 217.359375 162.601562 217.5625 162.722656 217.851562 L 165.804688 225.277344 L 168.089844 230.769531 C 168.875 232.664062 170.949219 233.75 172.914062 233.175781 C 175.273438 232.484375 176.445312 229.847656 175.378906 227.636719 C 175.378906 227.636719 175.378906 227.632812 175.378906 227.632812 L 169.730469 215.96875 C 169.488281 215.46875 169.820312 214.878906 170.375 214.824219 C 170.695312 214.792969 171 214.960938 171.152344 215.242188 L 178.023438 228.046875 L 178.875 229.636719 C 179.714844 231.199219 181.554688 232.015625 183.242188 231.457031 C 184.554688 231.023438 185.429688 229.925781 185.660156 228.6875 C 185.800781 227.929688 185.703125 227.121094 185.320312 226.375 L 179.941406 215.953125 C 179.707031 215.496094 179.878906 214.90625 180.355469 214.710938 C 180.777344 214.535156 181.25 214.714844 181.457031 215.105469 L 187.535156 226.585938 C 188.027344 227.511719 188.757812 228.230469 189.613281 228.707031 C 191.039062 229.496094 192.804688 229.609375 194.382812 228.863281 C 194.683594 228.722656 194.964844 228.550781 195.222656 228.359375 C 197.378906 226.796875 198.054688 223.785156 196.609375 221.417969 L 183.449219 199.894531 " fill-opacity="1" fill-rule="nonzero"/></g><path fill="#a6a6a6" d="M 130.914062 204.25 L 138.519531 202.988281 C 140.800781 202.609375 142.34375 200.453125 141.964844 198.167969 C 141.585938 195.886719 139.429688 194.34375 137.148438 194.722656 L 129.542969 195.984375 C 127.261719 196.363281 125.71875 198.519531 126.097656 200.800781 C 126.476562 203.082031 128.632812 204.625 130.914062 204.25 " fill-opacity="1" fill-rule="nonzero"/><path fill="#a6a6a6" d="M 145.84375 206.414062 C 145.464844 204.132812 143.308594 202.589844 141.027344 202.96875 L 130.648438 204.953125 C 128.367188 205.332031 126.824219 207.488281 127.203125 209.769531 C 127.578125 212.050781 129.738281 213.59375 132.019531 213.214844 L 142.398438 211.230469 C 144.679688 210.851562 146.222656 208.695312 145.84375 206.414062 " fill-opacity="1" fill-rule="nonzero"/><path fill="#a6a6a6" d="M 149.347656 215.035156 C 148.96875 212.753906 146.8125 211.210938 144.53125 211.589844 L 136.925781 212.851562 C 134.644531 213.230469 133.101562 215.386719 133.480469 217.667969 C 133.859375 219.949219 136.015625 221.492188 138.296875 221.113281 L 145.898438 219.851562 C 148.183594 219.472656 149.726562 217.316406 149.347656 215.035156 " fill-opacity="1" fill-rule="nonzero"/><path fill="#a6a6a6" d="M 149.808594 219.671875 L 143.566406 220.667969 C 141.285156 221.042969 139.742188 223.203125 140.121094 225.484375 C 140.496094 227.765625 142.65625 229.308594 144.9375 228.929688 L 151.179688 227.9375 C 153.464844 227.558594 155.007812 225.398438 154.628906 223.117188 C 154.25 220.835938 152.09375 219.292969 149.808594 219.671875 " fill-opacity="1" fill-rule="nonzero"/><g fill="#003479" fill-opacity="1"><g transform="translate(101.132306, 273.196413)"><g><path d="M 21.296875 -21.59375 C 21.617188 -21.59375 21.78125 -21.4375 21.78125 -21.125 L 21.78125 -0.390625 C 21.78125 -0.179688 21.722656 -0.0195312 21.609375 0.09375 C 21.503906 0.21875 21.375 0.28125 21.21875 0.28125 L 21.203125 0.28125 C 21.015625 0.28125 20.859375 0.226562 20.734375 0.125 C 20.617188 0.0195312 20.476562 -0.0976562 20.3125 -0.234375 L 6.59375 -13.265625 L 6.59375 -0.453125 C 6.59375 -0.140625 6.4375 0.015625 6.125 0.015625 L 3.046875 0.015625 C 2.722656 0.015625 2.5625 -0.140625 2.5625 -0.453125 L 2.5625 -21.21875 C 2.5625 -21.40625 2.613281 -21.554688 2.71875 -21.671875 C 2.820312 -21.785156 2.945312 -21.84375 3.09375 -21.84375 L 3.15625 -21.84375 C 3.300781 -21.84375 3.429688 -21.789062 3.546875 -21.6875 C 3.660156 -21.582031 3.796875 -21.46875 3.953125 -21.34375 L 17.78125 -8.25 L 17.78125 -21.125 C 17.78125 -21.4375 17.9375 -21.59375 18.25 -21.59375 Z M 21.296875 -21.59375 "/></g></g></g><g fill="#003479" fill-opacity="1"><g transform="translate(128.387248, 273.196413)"><g><path d="M 18.1875 -3.8125 C 18.445312 -3.8125 18.65625 -3.738281 18.8125 -3.59375 C 18.96875 -3.445312 19.046875 -3.253906 19.046875 -3.015625 L 19.046875 -0.625 C 19.046875 -0.4375 18.988281 -0.285156 18.875 -0.171875 C 18.757812 -0.0546875 18.601562 0 18.40625 0 L 3.203125 0 C 2.773438 0 2.5625 -0.207031 2.5625 -0.625 L 2.5625 -20.921875 C 2.5625 -21.347656 2.773438 -21.5625 3.203125 -21.5625 L 18.109375 -21.5625 C 18.316406 -21.5625 18.472656 -21.503906 18.578125 -21.390625 C 18.691406 -21.273438 18.75 -21.125 18.75 -20.9375 L 18.75 -18.421875 C 18.75 -17.984375 18.535156 -17.765625 18.109375 -17.765625 L 6.59375 -17.765625 L 6.59375 -11.8125 L 15.609375 -11.8125 C 15.835938 -11.8125 16.019531 -11.753906 16.15625 -11.640625 C 16.289062 -11.523438 16.359375 -11.359375 16.359375 -11.140625 L 16.359375 -8.78125 C 16.359375 -8.582031 16.289062 -8.425781 16.15625 -8.3125 C 16.019531 -8.195312 15.835938 -8.140625 15.609375 -8.140625 L 6.59375 -8.140625 L 6.59375 -3.8125 Z M 18.1875 -3.8125 "/></g></g></g><g fill="#003479" fill-opacity="1"><g transform="translate(151.79492, 273.196413)"><g><path d="M 20.890625 -0.703125 C 20.984375 -0.492188 20.984375 -0.316406 20.890625 -0.171875 C 20.804688 -0.0351562 20.648438 0.03125 20.421875 0.03125 L 17.359375 0.03125 C 17.203125 0.03125 17.054688 -0.0195312 16.921875 -0.125 C 16.796875 -0.238281 16.703125 -0.375 16.640625 -0.53125 L 15.78125 -2.625 L 5.859375 -2.625 L 5 -0.546875 C 4.925781 -0.390625 4.828125 -0.253906 4.703125 -0.140625 C 4.585938 -0.0351562 4.441406 0.015625 4.265625 0.015625 L 1.21875 0.015625 C 0.976562 0.015625 0.8125 -0.0507812 0.71875 -0.1875 C 0.632812 -0.320312 0.640625 -0.492188 0.734375 -0.703125 L 9.921875 -21.296875 C 9.992188 -21.460938 10.101562 -21.59375 10.25 -21.6875 C 10.40625 -21.789062 10.554688 -21.84375 10.703125 -21.84375 L 10.890625 -21.84375 C 11.054688 -21.84375 11.207031 -21.789062 11.34375 -21.6875 C 11.488281 -21.582031 11.597656 -21.445312 11.671875 -21.28125 Z M 7.265625 -6.0625 L 14.359375 -6.0625 L 10.8125 -14.65625 Z M 7.265625 -6.0625 "/></g></g></g><g fill="#003479" fill-opacity="1"><g transform="translate(176.324125, 273.196413)"><g><path d="M 0.84375 -18.703125 L 0.84375 -20.9375 C 0.84375 -21.351562 1.050781 -21.5625 1.46875 -21.5625 L 16.25 -21.5625 C 16.4375 -21.5625 16.582031 -21.503906 16.6875 -21.390625 C 16.800781 -21.273438 16.859375 -21.125 16.859375 -20.9375 L 16.859375 -18.703125 C 16.859375 -18.273438 16.65625 -18.0625 16.25 -18.0625 L 10.828125 -18.0625 L 10.828125 -0.609375 C 10.828125 -0.191406 10.613281 0.015625 10.1875 0.015625 L 7.453125 0.015625 C 7.035156 0.015625 6.828125 -0.191406 6.828125 -0.609375 L 6.828125 -18.0625 L 1.46875 -18.0625 C 1.269531 -18.0625 1.113281 -18.113281 1 -18.21875 C 0.894531 -18.332031 0.84375 -18.492188 0.84375 -18.703125 Z M 0.84375 -18.703125 "/></g></g></g><g fill="#003479" fill-opacity="1"><g transform="translate(196.92088, 273.196413)"><g><path d="M 21.296875 -21.59375 C 21.617188 -21.59375 21.78125 -21.4375 21.78125 -21.125 L 21.78125 -0.390625 C 21.78125 -0.179688 21.722656 -0.0195312 21.609375 0.09375 C 21.503906 0.21875 21.375 0.28125 21.21875 0.28125 L 21.203125 0.28125 C 21.015625 0.28125 20.859375 0.226562 20.734375 0.125 C 20.617188 0.0195312 20.476562 -0.0976562 20.3125 -0.234375 L 6.59375 -13.265625 L 6.59375 -0.453125 C 6.59375 -0.140625 6.4375 0.015625 6.125 0.015625 L 3.046875 0.015625 C 2.722656 0.015625 2.5625 -0.140625 2.5625 -0.453125 L 2.5625 -21.21875 C 2.5625 -21.40625 2.613281 -21.554688 2.71875 -21.671875 C 2.820312 -21.785156 2.945312 -21.84375 3.09375 -21.84375 L 3.15625 -21.84375 C 3.300781 -21.84375 3.429688 -21.789062 3.546875 -21.6875 C 3.660156 -21.582031 3.796875 -21.46875 3.953125 -21.34375 L 17.78125 -8.25 L 17.78125 -21.125 C 17.78125 -21.4375 17.9375 -21.59375 18.25 -21.59375 Z M 21.296875 -21.59375 "/></g></g></g><g fill="#003479" fill-opacity="1"><g transform="translate(224.175816, 273.196413)"><g><path d="M 19.515625 -10.96875 C 19.828125 -10.96875 19.984375 -10.8125 19.984375 -10.5 L 19.984375 -2.390625 C 19.984375 -2.265625 19.953125 -2.132812 19.890625 -2 C 19.828125 -1.863281 19.742188 -1.757812 19.640625 -1.6875 C 19.222656 -1.40625 18.734375 -1.140625 18.171875 -0.890625 C 17.617188 -0.648438 17.023438 -0.4375 16.390625 -0.25 C 15.765625 -0.0625 15.125 0.0820312 14.46875 0.1875 C 13.8125 0.289062 13.179688 0.34375 12.578125 0.34375 C 11.316406 0.34375 10.117188 0.160156 8.984375 -0.203125 C 7.847656 -0.566406 6.804688 -1.082031 5.859375 -1.75 C 4.921875 -2.425781 4.109375 -3.222656 3.421875 -4.140625 C 2.742188 -5.066406 2.21875 -6.085938 1.84375 -7.203125 C 1.46875 -8.328125 1.28125 -9.519531 1.28125 -10.78125 C 1.28125 -12.03125 1.46875 -13.210938 1.84375 -14.328125 C 2.21875 -15.453125 2.742188 -16.472656 3.421875 -17.390625 C 4.109375 -18.304688 4.921875 -19.101562 5.859375 -19.78125 C 6.796875 -20.457031 7.832031 -20.976562 8.96875 -21.34375 C 10.101562 -21.707031 11.300781 -21.890625 12.5625 -21.890625 C 13.289062 -21.890625 14.054688 -21.804688 14.859375 -21.640625 C 15.660156 -21.484375 16.4375 -21.242188 17.1875 -20.921875 C 17.9375 -20.597656 18.609375 -20.1875 19.203125 -19.6875 C 19.328125 -19.570312 19.40625 -19.429688 19.4375 -19.265625 C 19.46875 -19.109375 19.4375 -18.960938 19.34375 -18.828125 L 17.78125 -16.453125 C 17.675781 -16.304688 17.539062 -16.222656 17.375 -16.203125 C 17.207031 -16.191406 17.050781 -16.25 16.90625 -16.375 C 16.476562 -16.738281 16.015625 -17.035156 15.515625 -17.265625 C 15.015625 -17.492188 14.507812 -17.660156 14 -17.765625 C 13.5 -17.867188 13.023438 -17.921875 12.578125 -17.921875 C 11.554688 -17.921875 10.601562 -17.738281 9.71875 -17.375 C 8.84375 -17.007812 8.070312 -16.5 7.40625 -15.84375 C 6.75 -15.195312 6.234375 -14.441406 5.859375 -13.578125 C 5.484375 -12.710938 5.296875 -11.78125 5.296875 -10.78125 C 5.296875 -9.757812 5.472656 -8.804688 5.828125 -7.921875 C 6.191406 -7.046875 6.695312 -6.273438 7.34375 -5.609375 C 7.988281 -4.941406 8.753906 -4.421875 9.640625 -4.046875 C 10.535156 -3.671875 11.515625 -3.484375 12.578125 -3.484375 C 12.953125 -3.484375 13.359375 -3.53125 13.796875 -3.625 C 14.242188 -3.71875 14.675781 -3.847656 15.09375 -4.015625 C 15.519531 -4.179688 15.875 -4.363281 16.15625 -4.5625 L 16.15625 -7.625 L 12.484375 -7.625 C 12.179688 -7.625 12.03125 -7.78125 12.03125 -8.09375 L 12.03125 -10.5 C 12.03125 -10.8125 12.179688 -10.96875 12.484375 -10.96875 Z M 19.515625 -10.96875 "/></g></g></g><g fill="#003479" fill-opacity="1"><g transform="translate(248.932172, 273.196413)"><g><path d="M 1.28125 -10.75 C 1.28125 -12 1.460938 -13.179688 1.828125 -14.296875 C 2.203125 -15.421875 2.726562 -16.441406 3.40625 -17.359375 C 4.09375 -18.285156 4.898438 -19.085938 5.828125 -19.765625 C 6.753906 -20.441406 7.78125 -20.960938 8.90625 -21.328125 C 10.03125 -21.703125 11.21875 -21.890625 12.46875 -21.890625 C 13.71875 -21.890625 14.90625 -21.703125 16.03125 -21.328125 C 17.15625 -20.960938 18.179688 -20.441406 19.109375 -19.765625 C 20.035156 -19.085938 20.835938 -18.285156 21.515625 -17.359375 C 22.203125 -16.441406 22.726562 -15.421875 23.09375 -14.296875 C 23.46875 -13.179688 23.65625 -12 23.65625 -10.75 C 23.65625 -9.5 23.46875 -8.3125 23.09375 -7.1875 C 22.726562 -6.070312 22.203125 -5.054688 21.515625 -4.140625 C 20.835938 -3.222656 20.035156 -2.425781 19.109375 -1.75 C 18.179688 -1.082031 17.15625 -0.566406 16.03125 -0.203125 C 14.90625 0.160156 13.71875 0.34375 12.46875 0.34375 C 11.21875 0.34375 10.03125 0.160156 8.90625 -0.203125 C 7.78125 -0.566406 6.753906 -1.082031 5.828125 -1.75 C 4.898438 -2.425781 4.09375 -3.222656 3.40625 -4.140625 C 2.726562 -5.054688 2.203125 -6.070312 1.828125 -7.1875 C 1.460938 -8.3125 1.28125 -9.5 1.28125 -10.75 Z M 5.28125 -10.75 C 5.28125 -9.75 5.460938 -8.816406 5.828125 -7.953125 C 6.191406 -7.097656 6.703125 -6.347656 7.359375 -5.703125 C 8.015625 -5.066406 8.78125 -4.566406 9.65625 -4.203125 C 10.53125 -3.835938 11.46875 -3.65625 12.46875 -3.65625 C 13.476562 -3.65625 14.414062 -3.835938 15.28125 -4.203125 C 16.144531 -4.566406 16.90625 -5.066406 17.5625 -5.703125 C 18.226562 -6.347656 18.742188 -7.097656 19.109375 -7.953125 C 19.472656 -8.816406 19.65625 -9.75 19.65625 -10.75 C 19.65625 -11.757812 19.46875 -12.695312 19.09375 -13.5625 C 18.726562 -14.425781 18.21875 -15.179688 17.5625 -15.828125 C 16.90625 -16.484375 16.140625 -16.992188 15.265625 -17.359375 C 14.398438 -17.722656 13.46875 -17.90625 12.46875 -17.90625 C 11.46875 -17.90625 10.53125 -17.722656 9.65625 -17.359375 C 8.78125 -16.992188 8.015625 -16.484375 7.359375 -15.828125 C 6.710938 -15.179688 6.203125 -14.425781 5.828125 -13.5625 C 5.460938 -12.695312 5.28125 -11.757812 5.28125 -10.75 Z M 5.28125 -10.75 "/></g></g></g></svg>